<?xml version="1.0" encoding="utf-8"?>
<!-- Generator: Adobe Illustrator 28.1.0, SVG Export Plug-In . SVG Version: 6.00 Build 0)  -->
<svg version="1.1" id="Layer_1" xmlns="http://www.w3.org/2000/svg" xmlns:xlink="http://www.w3.org/1999/xlink" x="0px" y="0px"
	 viewBox="0 0 1080 1080" style="enable-background:new 0 0 1080 1080;" xml:space="preserve">
<style type="text/css">
	.st0{fill:#00AA4B;}
	.st1{fill:#006747;}
	.st2{fill:#3F4240;}
	.st3{fill:#FFFFFF;}
</style>
<g>
	<g>
		<polygon class="st0" points="601.1,517.88 601.1,541.03 692.1,617.05 692.1,593.55 		"/>
		<polygon class="st0" points="688.26,637.01 660.15,637.01 632.74,614.11 601.1,587.68 601.1,564.53 660.72,614.11 		"/>
	</g>
</g>
<g>
	<g>
		<polygon class="st1" points="692.1,441.6 692.1,464.75 601.1,540.77 601.1,517.27 		"/>
		<polygon class="st1" points="692.1,488.25 692.1,511.4 601.1,587.42 601.1,563.92 		"/>
		<polygon class="st1" points="692.1,537.83 692.1,560.99 601.1,637.01 601.1,613.51 		"/>
	</g>
</g>
<g>
	<g>
		<path class="st2" d="M351.86,541.09c-11.57,0-20-2.35-25.31-7.05c-4.82-4.24-7.22-10.63-7.22-19.16c0-5.08,0.76-9.72,2.29-13.93
			l12.5-2.03c-2.02,4.41-3.03,9.29-3.03,14.62c0,6.43,1.6,11.05,4.8,13.84c3.37,3,9.1,4.5,17.17,4.5h18.52v-53.25h11.72v62.47
			H351.86z M341.65,497.96c2.22,0,3.88,0.12,4.98,0.35c-1.12-0.58-1.69-1.73-1.69-3.46c0-2.77,0.98-5.05,2.94-6.84
			c2.28-2.05,5.58-3.07,9.91-3.07c1.41,0,3.16,0.14,5.23,0.43l-1.08,6.62c-1.47-0.29-2.94-0.43-4.41-0.43
			c-2.86,0-4.28,1.01-4.28,3.03c0,2.25,2.05,3.37,6.14,3.37h5.02v6.62h-22.76V497.96z"/>
		<path class="st2" d="M381.5,562.72l0.87-9.3c2.45,0.69,4.85,1.04,7.18,1.04c3.2,0,5.55-0.87,7.05-2.6
			c1.7-1.96,2.55-5.22,2.55-9.78v-42.66h11.68v42.01c0,14.77-7.3,22.15-21.89,22.15C386.34,563.59,383.86,563.3,381.5,562.72z"/>
		<path class="st2" d="M424.89,478.62h11.68v53.25h8.87v9.22h-20.55V478.62z"/>
		<path class="st2" d="M444.1,531.88h34.31c0.29-2.36,0.43-4.61,0.43-6.75c0-5.77-1.3-10.01-3.89-12.72
			c-2.77-2.86-7.27-4.28-13.5-4.28c-3.29,0-6.68,0.25-10.17,0.74v-9.13c4.15-0.55,7.93-0.82,11.33-0.82c9.78,0,16.9,2.18,21.37,6.53
			c4.3,4.15,6.45,10.57,6.45,19.25c0,2.51-0.12,4.9-0.35,7.18H497v9.22H444.1V531.88z M460.79,558.74
			c-1.21-1.18-1.82-2.64-1.82-4.37c0-1.67,0.61-3.12,1.82-4.33c1.18-1.18,2.61-1.77,4.28-1.77c1.7,0,3.14,0.59,4.33,1.77
			c1.21,1.18,1.82,2.62,1.82,4.33c0,1.7-0.61,3.14-1.82,4.33c-1.18,1.21-2.62,1.82-4.33,1.82
			C463.4,560.51,461.98,559.92,460.79,558.74z"/>
		<path class="st2" d="M495.62,531.88h16.66v-32.45h11.68v41.66h-28.34V531.88z M507.39,558.61c-1.15,1.18-2.57,1.77-4.24,1.77
			c-1.64,0-3.03-0.58-4.15-1.73c-1.12-1.15-1.69-2.58-1.69-4.28c0-1.64,0.56-3.06,1.69-4.24c1.15-1.18,2.54-1.77,4.15-1.77
			c1.67,0,3.09,0.58,4.24,1.73c1.12,1.18,1.69,2.61,1.69,4.28C509.07,556.04,508.51,557.46,507.39,558.61z M522.01,558.61
			c-1.15,1.18-2.54,1.77-4.15,1.77c-1.64,0-3.03-0.58-4.15-1.73c-1.12-1.15-1.69-2.58-1.69-4.28c0-1.64,0.56-3.06,1.69-4.24
			c1.15-1.18,2.54-1.77,4.15-1.77c1.64,0,3.03,0.58,4.15,1.73c1.12,1.18,1.69,2.61,1.69,4.28
			C523.7,556.02,523.13,557.43,522.01,558.61z"/>
		<path class="st2" d="M534.12,558.18c2.1,0,3.68,0.12,4.72,0.35c-1.01-0.75-1.51-1.86-1.51-3.33c0-2.37,0.99-4.33,2.98-5.88
			c2.25-1.76,5.35-2.64,9.3-2.64c2.25,0,3.99,0.17,5.23,0.52l-1.04,6.06c-2.08-0.32-3.56-0.48-4.46-0.48c-2.65,0-3.98,0.87-3.98,2.6
			c0,1.87,1.89,2.81,5.67,2.81h5.41v6.23h-22.32V558.18z M540.13,478.62h11.72v62.47h-11.72V478.62z"/>
	</g>
</g>
<g>
	<g>
		<path class="st2" d="M323.08,638.4v-50.88h27.69v8.21h-17.89v12.52h16.97v7.99h-16.97v13.73h17.89v8.43H323.08z"/>
		<path class="st2" d="M386.64,624.16c0,9.94-4.58,14.91-13.73,14.91c-1.91,0-4.03-0.2-6.33-0.59v-8.43
			c1.35,0.49,2.91,0.74,4.68,0.74c3.73,0,5.6-2.33,5.6-6.99v-36.26h9.79V624.16z"/>
		<path class="st2" d="M437.5,638.4l-3.46-10.42h-19.29l-3.57,10.42h-9.87l17.56-50.88h11.56l17.93,50.88H437.5z M426.34,605.09
			c-0.88-2.68-1.56-5.02-2.02-7.03h-0.07c-0.81,3.02-1.47,5.36-1.99,7.03l-5.19,15.13h14.47L426.34,605.09z"/>
		<path class="st2" d="M489.68,638.4l-13.73-21.02h-0.85v21.02h-9.79v-50.88c3.56-0.22,8.43-0.33,14.62-0.33
			c12.32,0,18.48,4.79,18.48,14.36c0,3.68-1.2,6.84-3.61,9.46c-2.31,2.5-5.28,4.07-8.91,4.71c1.91,2.5,3.28,4.36,4.09,5.56
			l11.82,17.12H489.68z M478.97,595.18c-1.6,0-2.88,0.09-3.87,0.26v14.69c0.91,0.1,2.09,0.15,3.53,0.15c2.95,0,5.26-0.7,6.96-2.1
			c1.72-1.4,2.58-3.29,2.58-5.67C488.17,597.62,485.1,595.18,478.97,595.18z"/>
		<path class="st2" d="M545.84,638.4l-16.38-24.45v24.45h-9.79v-50.88h9.79v23.05l16.46-23.05h12.04l-18.7,24.56l19.48,26.32H545.84
			z"/>
	</g>
</g>
</svg>
