<svg xmlns="http://www.w3.org/2000/svg" width="21.707" height="21.758" viewBox="0 0 21.707 21.758">
  <path id="search_icon" data-name="search icon" d="M1198.37,73.291l-3.731-3.656h0l-.088-.134a.876.876,0,0,0-1.234,0h0a8.792,8.792,0,0,1-11.417.37,8.364,8.364,0,0,1-1.852-11.043,8.755,8.755,0,0,1,10.938-3.228,8.425,8.425,0,0,1,4.682,10.207.848.848,0,0,0,.2.84.891.891,0,0,0,.84.252.869.869,0,0,0,.644-.587h0a10.159,10.159,0,0,0-5.427-12.236,10.574,10.574,0,0,0-13.162,3.42,10.082,10.082,0,0,0,1.476,13.264,10.608,10.608,0,0,0,13.605.56l3.3,3.237a.888.888,0,0,0,1.234,0,.854.854,0,0,0,.012-1.206l-.012-.012h0Z" transform="translate(-1176.928 -53.049)" fill="#4d5f65"/>
</svg>
