<svg xmlns="http://www.w3.org/2000/svg" width="20" height="18" viewBox="0 0 20 18">
  <path id="settings-sliders" d="M16,3a1,1,0,0,1,1,1V5h4a1,1,0,0,1,0,2H17V8a1,1,0,0,1-2,0V4A1,1,0,0,1,16,3ZM2,6A1,1,0,0,1,3,5h9a1,1,0,0,1,0,2H3A1,1,0,0,1,2,6ZM8,9a1,1,0,0,1,1,1v4a1,1,0,0,1-2,0V13H3a1,1,0,0,1,0-2H7V10A1,1,0,0,1,8,9Zm3,3a1,1,0,0,1,1-1h9a1,1,0,0,1,0,2H12A1,1,0,0,1,11,12Zm5,3a1,1,0,0,1,1,1v1h4a1,1,0,0,1,0,2H17v1a1,1,0,0,1-2,0V16A1,1,0,0,1,16,15ZM2,18a1,1,0,0,1,1-1h9a1,1,0,0,1,0,2H3A1,1,0,0,1,2,18Z" transform="translate(-2 -3)" fill="#4d5f65" fill-rule="evenodd"/>
</svg>
